<svg width="32" height="23" viewBox="0 0 32 23" fill="none" xmlns="http://www.w3.org/2000/svg">
<g clip-path="url(#clip0_82_8951)">
<path d="M29.0508 1.62109H2.79031C1.77512 1.62109 0.952148 2.45055 0.952148 3.47373V19.0585C0.952148 20.0817 1.77512 20.9111 2.79031 20.9111H29.0508C30.066 20.9111 30.8889 20.0817 30.8889 19.0585V3.47373C30.8889 2.45055 30.066 1.62109 29.0508 1.62109Z" fill="url(#paint0_linear_82_8951)"/>
<path fill-rule="evenodd" clip-rule="evenodd" d="M8.9363 11.0827L9.0696 10.5524C9.58176 10.3968 10.6271 10.3261 10.8236 10.8847C10.9358 11.21 10.6131 12.5606 10.5499 12.9565L10.0518 12.9636C9.93957 12.8222 10.0308 13.0838 9.9536 12.7373C9.47652 13.1687 8.45921 13.098 8.53639 12.2282C8.61356 11.3655 9.35725 11.4787 10.1641 11.3514C10.15 10.7998 9.46249 10.9483 8.92928 11.0756L8.9363 11.0827ZM12.6898 10.9978C12.2338 10.9978 12.1636 10.8988 11.7637 11.0756C11.8128 11.5777 12.0724 11.3797 12.4302 11.6201C13.1107 12.0726 12.3811 13.4727 10.7604 12.8717L10.8516 12.3626C11.3077 12.4545 11.5392 12.5464 11.89 12.3484C11.9742 11.6342 10.7183 12.1009 11.0691 10.9554C11.2586 10.3331 12.0934 10.418 12.781 10.4816L12.6828 10.9978H12.6898ZM5.70197 9.91595L6.7754 9.9513L6.88766 11.6484L7.46997 10.2907C7.66642 9.80281 7.53312 9.90888 8.76791 9.92302L8.21366 12.9565L7.61029 12.9495L7.94004 10.7716L7.04902 12.9636L6.32639 12.9424C6.30534 12.5181 6.27026 11.0261 6.158 10.7433L5.79318 12.9495L5.16175 12.9424L5.70197 9.91595ZM15.9382 16.3577L16.2328 16.0042C15.6435 15.9264 15.5382 16.0961 15.2716 15.6153L16.6257 15.6011C16.7099 15.4597 16.8502 15.3254 16.9204 15.1627C15.3769 15.0567 14.9419 15.4526 14.6963 14.7738H17.1729L17.4466 14.3425L14.3876 14.3283L14.2473 13.9677L17.5448 13.9536C17.7342 13.8475 17.7342 13.7273 17.7833 13.5081L14.6613 13.501C14.1 13.5081 14.0649 13.6354 13.9597 13.1192H17.8886L18.0149 12.6808L16.8642 12.6666L16.8081 12.9636L16.1486 12.9353L16.5626 10.4675L17.187 10.5524C17.187 10.5665 17.201 10.616 17.201 10.6372C17.201 10.6513 17.208 10.6726 17.208 10.6796L17.2431 10.8069C17.4185 10.5948 17.5308 10.4392 17.9377 10.4534L17.7272 11.0261C17.6079 11.1817 17.2571 11.0049 17.1098 11.4292L17.7974 11.4575C17.8745 11.012 17.9587 10.8776 18.085 10.517L18.092 10.3049L13.7913 10.3119L13.7773 10.4675C14.0088 10.4675 14.0018 10.4251 14.1351 10.5382L14.0719 10.9554C13.6369 11.0615 13.651 10.7998 13.6089 11.3726C13.672 11.4787 13.5948 11.4221 13.7281 11.4575L14.0018 11.4645C14.4438 10.0149 15.7628 10.3331 16.0644 10.7857C16.2258 11.0261 16.3872 11.8181 15.9873 11.8817L14.6472 11.8959C14.7104 12.61 15.5242 12.4616 16.0504 12.2848C16.0294 12.5818 16.0504 12.8222 15.7768 12.9212C15.5593 12.999 15.1033 12.9777 14.8647 12.9212C14.2754 12.7868 14.0228 12.4898 13.9807 11.8464L13.7281 11.8393C13.4966 11.7332 13.679 11.8393 13.5598 11.5494C13.4615 12.1434 13.1949 12.5252 13.9246 12.4403C13.8825 12.7939 13.9316 12.9141 13.5457 12.9565C12.4232 13.0909 12.788 12.3343 12.9704 11.3231C13.2581 9.71089 13.0336 9.90888 13.8474 9.92302L18.0289 9.93009L17.9447 9.49168L13.9035 9.47754L13.9807 9.12398L17.8044 9.10277C17.7062 8.50172 17.6851 8.65022 16.296 8.65022H14.1772C14.3245 8.13402 14.2473 8.27545 15.6224 8.27545H17.4816L17.2852 7.82996L14.5911 7.82289L14.7735 7.45519L17.0256 7.44105C16.738 6.84708 16.752 7.01678 15.1594 6.9885C15.3628 6.47938 15.7207 6.60666 16.3451 6.60666C16.1697 6.32381 16.0434 6.34503 15.9382 6.10461C15.6786 5.97026 15.447 5.72984 15.1875 5.54599C13.202 4.13176 10.5079 3.98327 8.34696 5.04394C6.40356 5.99147 4.49524 8.18352 4.51629 11.217C4.54435 15.5516 8.3189 18.7124 12.5916 17.977C14.5981 17.6306 15.1033 16.8103 15.9311 16.3507L15.9382 16.3577Z" fill="#E41D2C"/>
<path fill-rule="evenodd" clip-rule="evenodd" d="M20.5196 10.5306C22.6945 10.0852 22.3367 11.167 22.1613 12.0439C22.1052 12.3055 22.1052 12.8217 21.9017 12.9631C21.8526 12.9631 21.5649 12.9702 21.5369 12.956C21.3404 12.8783 21.4316 13.1116 21.4036 12.751C20.8142 13.0904 19.8811 13.1682 19.9934 12.2206C20.0846 11.464 20.8423 11.3438 21.614 11.3792C21.586 10.8206 21.0808 10.9125 20.3792 11.0893L20.5266 10.5306H20.5196ZM22.6664 10.467L23.2487 10.4741C23.2558 10.4882 23.2628 10.5094 23.2628 10.5236L23.354 10.7852C23.4592 10.6226 23.6557 10.4811 23.9644 10.4741L23.8802 10.9761L23.5925 11.0893C23.0172 11.2802 23.0523 12.0085 22.8979 12.9631H22.2455L22.6664 10.467ZM25.7604 9.9296H26.3568L25.8446 12.9702C25.1781 12.9773 25.3395 13.0126 25.129 12.7581C24.694 13.4086 23.3891 12.8075 23.789 11.464C24.0836 10.4599 25.0799 10.1912 25.571 10.7852L25.7674 9.92253L25.7604 9.9296ZM15.9452 6.11119C16.0504 6.35161 16.1837 6.33039 16.3521 6.61324C15.7277 6.61324 15.3699 6.47889 15.1664 6.99508C16.759 7.02336 16.745 6.85366 17.0327 7.44763L14.7806 7.46177L14.5982 7.82947L17.2923 7.83654L17.4887 8.28202H15.6295C14.2614 8.28202 14.3315 8.14767 14.1842 8.65679H16.303C17.6922 8.65679 17.7132 8.5083 17.8114 9.10935L13.9878 9.13056L13.9106 9.48412L17.9517 9.49826L18.0359 9.93667L13.8545 9.9296L13.7983 10.3256L18.0991 10.3185L18.0921 10.5306C18.4148 10.2195 18.3587 10.0569 18.962 9.8801C19.4602 9.73868 19.7759 9.84475 20.267 9.95081L20.1618 10.6014C19.3198 10.3468 18.7726 10.4104 18.5762 11.2873C18.3587 12.2277 19.0953 12.5813 19.8741 12.2065C19.8039 12.8924 19.6917 13.0621 18.8919 12.956C18.3376 12.8853 18.1692 12.6166 17.9237 12.2843H16.9204L16.8643 12.6732L18.0149 12.6873L17.8886 13.1258H13.9597C14.0649 13.6419 14.1 13.5147 14.6613 13.5076L17.7834 13.5147C17.7272 13.7268 17.7343 13.8541 17.5448 13.9601L14.2474 13.9743L14.3877 14.3349L17.4466 14.3491L17.173 14.7804H14.6964C14.9419 15.4522 15.3769 15.0632 16.9204 15.1693C16.8503 15.3319 16.7099 15.4663 16.6257 15.6077L15.2717 15.6219C15.5313 16.0956 15.6435 15.933 16.2329 16.0108L15.9382 16.3643C16.9415 17.1068 17.7202 17.7291 19.3409 18.0119C20.8142 18.2665 22.3507 17.9836 23.5364 17.3967C28.672 14.844 28.5317 7.49006 23.4943 5.05759C21.6842 4.18784 19.2848 4.11006 17.4115 5.10001C16.5065 5.57378 16.289 5.91319 15.9522 6.11826L15.9452 6.11119Z" fill="#F8B02B"/>
<path fill-rule="evenodd" clip-rule="evenodd" d="M5.16162 12.9489L5.79305 12.956L6.15788 10.7498C6.27013 11.0326 6.30521 12.5247 6.32626 12.9489L7.0489 12.9701L7.93991 10.7781L7.61017 12.956L8.21353 12.9631L8.76779 9.92955C7.53299 9.91541 7.66629 9.80934 7.46985 10.2972L6.88753 11.6549L6.77528 9.95783L5.70184 9.92248L5.16162 12.9489ZM24.7079 12.3903C24.1817 11.8458 24.6307 10.9407 25.1218 11.0609C25.6059 11.1811 25.5147 12.3762 24.7079 12.3903ZM25.5638 10.7852C25.0727 10.1912 24.0835 10.4599 23.7818 11.464C23.3819 12.8004 24.6868 13.4085 25.1218 12.758C25.3323 13.0126 25.1709 12.9701 25.8374 12.9701L26.3496 9.92955H25.7533L25.5568 10.7922L25.5638 10.7852ZM20.7439 12.3974C20.6457 11.9236 21.0807 11.7398 21.4946 11.8246C21.5157 12.3054 21.1789 12.5671 20.7439 12.3974ZM20.5194 10.5377L20.3721 11.0963C21.0737 10.9266 21.5858 10.8347 21.6069 11.3862C20.8351 11.3508 20.0774 11.4711 19.9862 12.2277C19.8669 13.1752 20.8071 13.0974 21.3964 12.758C21.4244 13.1186 21.3332 12.8853 21.5297 12.9631C21.5578 12.9772 21.8454 12.9701 21.8945 12.9701C22.105 12.8358 22.105 12.3125 22.1541 12.0509C22.3365 11.167 22.6873 10.0922 20.5124 10.5377H20.5194ZM10.0517 11.8034C10.0657 12.0438 10.0236 12.2277 9.86928 12.3479C9.76404 12.4257 9.44833 12.5176 9.32204 12.3974C8.92915 12.0367 9.66582 11.7963 10.0447 11.8034H10.0517ZM8.93617 11.0821C9.46938 10.9549 10.1569 10.8064 10.171 11.3579C9.36414 11.4852 8.62045 11.3721 8.54328 12.2347C8.45909 13.1045 9.47639 13.1752 9.96049 12.7439C10.0377 13.0903 9.94646 12.8287 10.0587 12.9701L10.5568 12.9631C10.62 12.56 10.9427 11.2165 10.8305 10.8912C10.634 10.3255 9.59566 10.3962 9.07649 10.5589L8.94318 11.0892L8.93617 11.0821ZM14.7523 11.4357C14.8435 11.0751 14.9979 10.9266 15.4118 10.9831C15.5592 11.1953 15.5592 11.1316 15.5872 11.4357H14.7523ZM14.0087 11.4711L13.9806 11.8529C14.0227 12.4964 14.2823 12.7863 14.8646 12.9277C15.1031 12.9843 15.5592 13.0055 15.7767 12.9277C16.0503 12.8358 16.0292 12.5883 16.0503 12.2913C15.5241 12.4681 14.7102 12.6166 14.6471 11.9024L15.9871 11.8883C16.387 11.8246 16.2257 11.0397 16.0643 10.7922C15.7626 10.3397 14.4436 10.0215 14.0016 11.4711H14.0087ZM18.0919 10.5306C17.9656 10.8912 17.8814 11.0256 17.8043 11.4711V11.86L17.9235 12.2913C18.1691 12.6236 18.3375 12.8924 18.8917 12.9631C19.6915 13.0691 19.8038 12.8994 19.8739 12.2135C19.0882 12.5883 18.3585 12.2347 18.576 11.2943C18.7795 10.4104 19.3267 10.3538 20.1616 10.6084L20.2668 9.95783C19.7757 9.85884 19.46 9.75277 18.9619 9.88712C18.3585 10.0568 18.4146 10.2265 18.0919 10.5377V10.5306ZM12.7809 10.4811C12.0933 10.4245 11.2584 10.3326 11.069 10.9549C10.7182 12.1004 11.967 11.6337 11.8899 12.3479C11.532 12.5459 11.3075 12.4539 10.8515 12.362L10.7603 12.8711C12.381 13.4722 13.1036 12.0792 12.4301 11.6195C12.0723 11.3791 11.8127 11.5842 11.7636 11.0751C12.1635 10.8912 12.2266 10.9973 12.6897 10.9973L12.7879 10.4811H12.7809Z" fill="#FEFEFE"/>
<path fill-rule="evenodd" clip-rule="evenodd" d="M13.5663 11.5557L13.6154 11.386C13.6575 10.8132 13.6435 11.0749 14.0785 10.9688L14.1416 10.5516C14.0083 10.4385 14.0153 10.4809 13.7838 10.4809L13.7978 10.3253L13.854 9.92935C13.0401 9.91521 13.2646 9.71722 12.977 11.3294C12.7946 12.3406 12.4297 13.0972 13.5523 12.9629C13.9311 12.9204 13.889 12.8002 13.9311 12.4467C13.2085 12.5315 13.4751 12.1497 13.5663 11.5557ZM16.8638 12.68L16.9199 12.2911L16.9901 11.8668L17.1164 11.4426C17.2707 11.0183 17.6215 11.1951 17.7338 11.0395L17.9442 10.4668C17.5303 10.4526 17.418 10.6082 17.2497 10.8203L17.2146 10.693C17.2146 10.686 17.2076 10.6648 17.2076 10.6506C17.2076 10.6365 17.1935 10.5799 17.1935 10.5658L16.5691 10.4809L16.1552 12.9487L16.8147 12.977L16.8708 12.68H16.8638ZM22.245 12.9629H22.8974C23.0518 12.0083 23.0167 11.2799 23.592 11.089L23.8797 10.9759L23.9639 10.4738C23.6552 10.4809 23.4587 10.6223 23.3535 10.785L23.2623 10.5233C23.2553 10.5092 23.2553 10.488 23.2482 10.4738L22.6659 10.4668L22.245 12.9629Z" fill="#FEFEFE"/>
<path fill-rule="evenodd" clip-rule="evenodd" d="M24.7078 12.3908C25.5217 12.3766 25.6129 11.1816 25.1218 11.0614C24.6236 10.9412 24.1816 11.8463 24.7078 12.3908Z" fill="#F8B02B"/>
<path fill-rule="evenodd" clip-rule="evenodd" d="M10.052 11.8039C9.67315 11.7968 8.93648 12.0372 9.32937 12.3978C9.45566 12.511 9.77137 12.4191 9.87661 12.3483C10.031 12.2352 10.066 12.0443 10.059 11.8039H10.052ZM16.9206 12.2847L17.9238 12.2918L17.8046 11.8604H16.9907L16.9206 12.2847Z" fill="#E41D2C"/>
<path fill-rule="evenodd" clip-rule="evenodd" d="M20.7442 12.3977C21.1862 12.5603 21.516 12.3058 21.4949 11.8249C21.074 11.7472 20.646 11.931 20.7442 12.3977ZM16.9907 11.8603H17.8046V11.4714L17.117 11.436L16.9907 11.8603Z" fill="#F8B02B"/>
<path fill-rule="evenodd" clip-rule="evenodd" d="M14.752 11.4359H15.5868C15.5658 11.1389 15.5588 11.1955 15.4114 10.9834C14.9975 10.9268 14.8432 11.0753 14.752 11.4359Z" fill="#E41D2C"/>
<path fill-rule="evenodd" clip-rule="evenodd" d="M13.5669 11.5564C13.6862 11.8463 13.5038 11.7403 13.7353 11.8463L13.9878 11.8534L14.0159 11.4716L13.7423 11.4645C13.602 11.4362 13.6791 11.4857 13.623 11.3796L13.5739 11.5493L13.5669 11.5564Z" fill="#F8B02B"/>
</g>
<defs>
<linearGradient id="paint0_linear_82_8951" x1="15.9203" y1="1.62378" x2="15.9203" y2="20.9153" gradientUnits="userSpaceOnUse">
<stop stop-color="#1D4C80"/>
<stop offset="1" stop-color="#173A63"/>
</linearGradient>
<clipPath id="clip0_82_8951">
<rect width="30.4139" height="22.8104" fill="white" transform="translate(0.713867 0.0334473)"/>
</clipPath>
</defs>
</svg>
